<!-- icon666.com - MILLIONS vector ICONS FREE --><svg id="Capa_1" enable-background="new 0 0 512 512" viewBox="0 0 512 512" xmlns="http://www.w3.org/2000/svg"><g><path d="m467.835 295.684c0-36.573-382.973-377.177-405.271-238.836 3.908 99.53-39.24 372.118 19.847 432.955 38.855 29.892 146.205-117.599 149.105-154.732 58.263-5.258 236.319 31.002 236.319-39.387z" fill="#80aeff" style="fill: rgb(255, 255, 255);"></path><path d="m476.233 290.679c-5.3-20.66-20.475-35.122-34.728-49.081-10.68-9.94-21.75-18.98-32.999-27.633-7-5.392-17.115-3.962-22.334 3.173-5.151 7.024-3.633 16.893 3.39 22.045 10.889 7.989 21.476 16.274 31.275 24.994 10.364 10.22 24.816 21.39 26.935 35.838-4.614 6.978-14.403 8.378-22.998 10.811-46.701 8.988-95.054 5.703-142.602 8.19-15.956 1.695-33.714-.107-48.616 7.004-26.403 22.522-46.162 50.847-64.84 79.265-17.422 23.487-50.539 89.798-81.993 87.666-28.393-16.445-28.097-87.373-29.358-117.841-.001-3.397.04-6.797.117-10.189 5.25-2.368 9.015-7.522 9.29-13.67 1.184-26.337 1.75-52.64 1.761-78.882 1.286-70.913-6.919-142.611 1.27-213.027 6.919-61.304 49.938-36.182 85.895-15.077 54.506 34.57 103.393 77.567 150.18 121.928 11.129 10.876 27.198-7.445 15.261-17.136-50.697-41.315-99.838-85.401-154.854-121.621-49.948-33.491-106.293-48.652-118.56 28.09-10.373 71.779-3.797 144.283-7.671 216.322-.939 25.844-2.389 51.614-4.75 77.254-.586 6.204 2.562 11.905 7.542 14.936-3.368 60.08 3.111 191.617 80.933 133.455 48.797-44.26 72.157-108.828 122.692-150.863 39.497-5.05 79.671-1.812 119.581-2.893 36.149-2.242 118.072 2.556 110.181-53.058z" fill="#2e386b" style="fill: rgb(0, 0, 0);"></path></g></svg>