<!-- icon666.com - MILLIONS vector ICONS FREE --><svg id="expand" enable-background="new 0 0 512 512" viewBox="0 0 512 512" xmlns="http://www.w3.org/2000/svg"><path d="m511.2 140.5s.5.9.7 0 .2-1.9-.1-2.8h-.3l-.3-.2-.4-.2c.3-1.9-.3-3.6 0-5.4l.2-.9-1-2.6.7-1.7-1.3-3c.3-.5.6-1 1.1-1.4.3-1.3-1-2.5-.8-3.3l.4-1.8c-1.4-1 1.2-1.2-.2-1.6 0 0 .7-1.2-1-4.6-1.7-3.3-2.2-3.2-2.2-3.2s-.1-.5-1.3-1.4-2.6 0-2.9 2-2.2.4-2.3.4c-.3-.5-.5-.9-.9-1.3-1.2-.7-2.3-1.4-3.3-2.3-.3-1.2-2.5-.2-1.9-1.5-3.3-1.2-6.8-2.1-10.4-3.1l-3.6-1.3-4.4-1c1-1.1 1.3-2.7.8-4.1l.6-6.4-.4-1.7 1 .2h.1l.5-.8.2-1 1 .2c-.5-.6-.1-1.1.6-1s.9-.8 1.1-1c.4-.4.8-.8 1.1-1.2l.2-.6c0-.3 0-.5 0-.8 0-.4.3-.6.2-1 0-.4-.1-.6 0-.9s.5-.8.2-1.2c-.2-.3-.4.3-1-.2s-.6-.5-.4-.7.9.2.9.2l.3-.5-.4-.7c-.2-.4-.3-.8-.4-1.3s-.3-1.1-.5-1.6l-.7-1c.9-1.1 1.7-2.3 2.3-3.5l-1.1-.2 1.6-3 .2-.3c-.7-1-1-2.2-1-3.4 0 0 .4.8.9.7l-.2-.8c-.2-.4-.3-.6.1-.5l.4.1-.2-.6c-.3-.2-.5-.5-.7-.8v-.9l-.3-1.7c.2-.1.4-.2.5-.4.3-.3-.5-.5-.5-.5l-.6.6c0-.8.1-1.7.2-2.5l1-.2s.6.3.7.1c.1-.3 0-.7-.3-.9h-.3l-.7-.2c.2-.6.4-1.2.6-1.8l.8-.1.6-.4.5-.7c.3-.1.6-.2 1-.2l.3-.7-.3-.6.2-.1.3-.3c.2-.2-.2-.4-.4-.5h-.1l-.6.6c0-.8-1.2-1.5-1-2.4l.7-.1h.3s.6.3.7.1c.1-.3 0-.7-.3-.9h-.3l-.3-.1-.4-.1c.2-.5-.5-1.1-.2-1.7l.1-.3-1.2-.9.6-.4-1.4-1.2c.3-.1.6-.2.9-.2.2-.3-1.1-.9-1-1.1l.3-.5c-1.4-.5 1.1-.1-.3-.5 0 0 .6-.3-1.3-1.6-.7-.6-1.5-1-2.3-1.3-.4-.3-.9-.5-1.4-.6-.5-.2-1.1-.3-1.7-.3-1.4-.3-2.7-.8-3.9-1.4-.7-1-2.8.4-2.5-1-3.9-.5-7.9-.5-12.1-.7l-4.3-.5h-9.4c-3.8 1-7.8 1.2-11.7.7 0 0 5.4-2.3-3.1-1-5 .7-9.8 2.2-14.3 4.5-5.9 1.7-11.9 3.2-18 4.3-5.2.8-10.2 2.6-14.8 5.1-7.2 3.1-14.4 6.4-21.3 10.1l-4.8 3.2-.5-.9h-.4l-3 1.2-3.2 1.7-.5-.7c-1.2 1.4-3.2 2.2-3.7 1.7-.5-.6-3.5 1.2-4.4 1.7s-3.1 1.1-5 2.1l-1.7.9c-.8.5-1.6 1.1-2.3 1.8-1.1.9-2.1 1.2-3.3 2.2-.8.7-1.7 1.4-2.6 1.9-1.4.7-2.6 1.5-3.7 2.6-.7.8 1.4-.5.6.9-.7 1.4-.7 1.4-1.7 1.8-.9.4-.5-.7-.5-.7l-1.7 1-1.4 1.7s-.6.8-3.1 3.2c-1.3 1.3-2.5 2.6-3.7 4l-1.7 2.6c-4.1 2.7-8.1 5.6-11.9 8.7l.8.8c-3.1 2.6-6.2 5.3-9.2 8.1l-1.1.9c-1.9 3.4-4 6.7-6.3 9.8 0 0 1.2-2.2.3-2v.1l-1.5 2.3c-.6 1.3-.9 1.7-1.2 1.4l-.3-.2-1 1.7c-.2.9-.5 1.7-.9 2.5l-1.6 2.4-3 5.2c-.5.4-1 .8-1.5 1.2-1 1-.4 1.7-.4 1.7l1.9-1.8-5.1 8-1.7.8s-.1-1.1-.6-.4c-.7.8-1.1 1.8-1.2 2.8l.3.2.4.7-1.7 2.7c-1.6-4.5-3.8-8.8-6.7-12.6 0 0-4.5-8.8-7.8-16.9-2-4.9-4.9-9.5-8.6-13.3-4.8-6.4-10.1-12.4-15.7-18.1l-4.6-3.5.7-.8-.2-.4-2.1-2.5c-.8-.9-1.8-1.7-2.7-2.5l.7-.8c-1.7-.6-3.2-2.3-2.8-3s-2.2-3-3-3.7c-.7-.6-2.1-2.7-3.6-4.1l-1.4-1.2c-.8-.6-1.6-1.1-2.4-1.5-1.2-.7-1.8-1.5-3.1-2.3-.9-.5-1.8-1-2.7-1.7-1.1-1-2.3-1.9-3.6-2.5-1-.3.9 1.1-.6.9s-1.5-.2-2.2-.8.5-.7.5-.7l-1.5-1.2-2-.7c-1.4-.5-2.7-1.1-4-1.8-2.2-1-4.3-1.8-5.5-2.2-1.1-.3-2.1-.5-3.2-.7-4.3-2.8-8.7-5.3-13.3-7.5l-.4 1.1c-3.8-1.7-7.6-3.3-11.4-4.7l-1.4-.6c-3.9-.1-7.7-.5-11.5-1.1 0 0 2.5 0 1.9-.6h-.1l-2.7-.2c-1.4 0-1.9 0-1.8-.4v-.4h-1.8c-.9.2-1.7.4-2.6.4l-2.7-.4c-1.9-.1-3.9-.2-5.8-.2-.5-.3-1.1-.5-1.7-.7-1.3-.4-1.5.4-1.5.4l2.4.8-8.8-.8-1.4-1.1s.9-.6 0-.7c-.9-.2-1.9-.2-2.8.2v.3l-.5.7-6.5-.7-1-.8-1.8-.6-3-.5c-.5-.2-1-.5-1.5-.9l-2.7-.3-1.7.1-.7-.2-1.1-.3c-1-.2-1.3.3-1.4.5v.1l2.5.5c-2.9.1-4.6 1.5-7.7 1.5l-1-.6-.5-.3s.8-.6 0-.7c-1-.1-2 .1-2.8.6v.3l-.1.3-.2.4c-1.9 0-3.6.9-5.5.9h-1l-2.4 1.7-1.9-.3-.9.5c-.3-.1-.6-.2-.8-.3-.8-.3-1.7-.5-2.6-.5-.5-.1-1-.2-1.5-.2-1.3 0-2.5.3-2.6.8 0 .5-2.2.4-2.2.4s-.9.2-.9.9-1.7-.1-2.5-.6-3.4.1-4 .2c-.6 0-4.6-.4-5.1.4-.3.5-.3 1.2 0 1.7 0 0-2.9-.1-3.4 1l-.5 1.1c-.5 1.5-.8 3.1-.9 4.8l.4.8c.4 1-2.6 1.7-2.6 1.7l.6.6-.1.6s-.7-.2-.9.1-.1.3.6.7.7-.4 1.1-.1c.3.3.2 1 .2 1.4s0 .5.3 1 0 .8.1 1.2c.2.3.3.6.4.9v.3c-.2.6-.4 1.2-.6 1.8 0 .3 0 1.4-.6 1.6s-.9.9-.2 1.3l-1.1.1.4 1.2-.2 1.1-.1.1-1 .1-.6 1 .3.3c-.5.5-1 1-1.6 1.5l-1.1.3c1.1.6 2.2 1.3 3.2 2.2.4.5.8 1 1 1.6l.2.4c.2.3.4.6.6.8l.6.6-.1.6c-.2-.1-.5-.1-.7 0l-.1.1v.3c.2.1.4.3.6.3.7.3.7-.4 1.1-.2.3.3.2 1 .2 1.4s.1.5.3 1 0 .8.2 1.2c.2.3.3.6.4.8v.6c-.1.5-.3 1-.5 1.5v.3c0 .3 0 1-.3 1.4l.8.6c.4.5.8 1 1.1 1.5.2.5.5.9.8 1.3l.6.6-.1.6s-.8-.2-.9.1-.1.3.6.7.7-.5 1-.2l.1.1c.2.4.2.9.2 1.3s.1.5.3 1 0 .8.2 1.2c.2.3.3.5.4.8v.1l.1.1c.2.5.5.9.9 1.2l.6.6-.1.6s-.8-.2-.9.2c-.1.3-.1.3.6.6s.7-.5 1-.2.3 1 .3 1.4.1.5.3 1 0 .8.2 1.2c.2.3.3.5.4.8v.6c-.1.6-.3 1.1-.5 1.7h-.4c-.9 0-1.2.4-1.3.6v.6l1.7.2c0 .1-.1.2-.2.3-2 .8-4.1 1.4-6.2 1.8l-1-.5-.5-.3s.7-.7-.1-.7c-.9 0-1.8.2-2.6.8v.3l-.1.4-.1.4c-1.8.2-3.3 1.1-5.1 1.3h-.9l-2.2 1.7-1.8-.1-2.5 2.1c-.6-.1-1.1-.3-1.6-.6-1.3.1-2.1 1.7-2.8 1.8l-1.8.2c-.5 1.7-1.5-.7-1.4.7 0 0-1.4-.2-4 2.6-.6.7-1.2 1.4-1.7 2.1h.5c-.6 0-5-2.6-5.1.3-.1 2 .1 4 .6 6 0 0-3-1-3.1 2.9 0 1.3-.1 2.6-.1 4-.1 4.8.3 11.2.7 16.8.2.9.5 1.9.8 3.1.6 2-.3 4.2-2.1 5.2l.8 2.3c.1 1.4.1 2.2.1 2.2s-.9-1-.9.1 0 1.1.9 2.6.6-1.3 1.1-.1c.4 1.7.6 3.4.7 5.1.1 1.2.3 2.4.6 3.6.4 1.7.2 2.9.6 4.4.2 1.2.5 1.9.7 3.2 0 .7.1 1.4.2 2 .1 2.4-.1 5.1 0 6.1s.6 5.1-.1 5.4-.6 2.8.3 4.6l-1.1.1.5 4.1.2 3.7v.5l-1 .1-.2 3.2.5 1.3c-.3 1.6-.7 3.1-1.2 4.6l-1 .7c1.6 2.8 2.9 5.8 4 8.9.4 1.2 1 3.3 1.7 5.9.1.7.3 1.1.4 1.7.2 1.1.5 2.2.9 3.2l.8 2.3c0 1.4.1 2.2.1 2.2s-.5-.6-.8-.2c-.1.1-.1.2-.1.4 0 .4 0 .8.1 1.2.2.5.5 1 .8 1.4.9 1.5.6-1.3 1.1-.1.4 1.6.6 3.3.7 5 .1 1.2.3 2.4.6 3.6.4 1.7.2 2.9.6 4.4.3 1.2.5 1.9.7 3.2 0 .7.1 1.4.2 2.1v5.2.9c.2 1.6.2 3.3.1 4.9.3.8.7 1.5 1 2.4.4 1.2 1 3.3 1.7 5.9.3 1.6.7 3.2 1.3 4.8l.8 2.3c.1 1.4.1 2.2.1 2.2s-.9-1-.9.1 0 1.1.8 2.6.6-1.3 1.1-.1c.1.1.1.3.1.4.3 1.5.5 3.1.6 4.6.1 1.2.3 2.4.6 3.6.4 1.7.2 2.9.6 4.4.3 1.2.5 1.9.7 3.2v.3l.1.5c.3 1.6.7 3.2 1.3 4.8l.8 2.3c.1 1.4.1 2.2.1 2.2s-.9-1-.9.1 0 1.1.9 2.6.6-1.3 1.1-.1c.4 1.6.6 3.3.7 5 .1 1.2.3 2.4.6 3.6.4 1.7.2 2.9.6 4.4.2 1.2.5 1.9.7 3.2 0 .7.1 1.4.2 2 .1 2.4-.1 5 0 6.1s.6 5.1-.1 5.3-.6 2.8.3 4.6l-1.1.1.5 4.1.2 3.7v.5l-1.1.1-.1 3.3.5 1.3c-.3 1.5-.7 2.9-1.1 4.4.4 1.7.8.7 1.7 2.2.9 1.3 2.1 2.4 3.5 3.2-.2 2-.2 4.1 0 6.2.6 4.3 0 0 1.4 4.9s2.6 3.3 2.6 7.7c-.1 2.2.3 4.5 1 6.6.6.8 1.2 1.6 1.7 2.5.4.9 1 1.7 1.7 2.4.3 1 1.5 1.6 2.5 1.2 2.1-.5-.2 2.4.9 1.8.6.2 1.2.3 1.8.4-.1 1.2-.4 1 1.4 2.4 1.1.2 2.3.6 3.3 1 .6 1 1.9-.6 1.9.8 2.8.1 5.5-.1 8.5 0l3.1.6 5.6.4.9.1c2.1-1.6 8.1.9 8.1.9s-3.9 1.2 1.9 1.6c3.5.1 7-.2 10.4-.9 4.3 0 8.6.7 12.7 2.1 3.5 1.3 7.2 1.9 10.9 1.8 5.5 1.1 11.1 1.9 16.5 3.2l4.1.4-.3 1 .3.3 2.1.9 2.5.7-.3 1c1.3-.3 2.8.4 2.7 1.1s2.2 1.5 2.8 1.9c.6.3 1.9 1.4 3.3 2l1.2.5c.7.2 1.3.3 2 .4 1 .2 1.5.7 2.6.9.8.1 1.5.3 2.2.6.9.6 1.9 1 2.9 1.2.8 0-.8-.7.4-1s1.2-.2 1.7.2-.3.8-.3.8l1.2.7h1.6c1.1.1 2.1.3 3.1.6 1.2.3 2.5.6 3.8.7l2.3.1c2.7 2 5.6 4 8.7 5.9l.5-1c2.5 1.5 4.9 3.3 7.3 4.9l.7.6c2.8.5 5.5 1.3 8.1 2.5 0 0-1.8-.4-1.6.2l1.9.7c1 .2 1.3.4 1.1.7l-.2.3 1.3.5c.7 0 1.3.1 2 .2l1.9.9 4 1.7c.3.4.6.8.9 1.1.3.4.8.4 1.2.1 0 0 .1-.1.1-.1l-1.3-1.4c2 1 3.8 2.2 5.6 3.5l.3 1.4s-.9.2-.4.6c.5.5 1.2.8 2 .8l.2-.3.6-.4 3.9 3.1.2 1.1.7 1.2 1.5 1.7c.2.4.3.9.3 1.4l1.4 1.4 1 .6.2.4.5.7c.2.4.7.5 1 .3h.1.1l-1.1-1.5c1.7 1.2 3.5 1 5.3 2.4l.1 1v.5s-.8 0-.4.5c.4.6 1.1.9 1.8 1l.2-.3.3-.1.4-.2c1 1 2.4 1.2 3.3 2.2l.5.5 2.3.2.6 1.2 2.7.3c.1.5.2.9.1 1.4.5.8 2.1.4 2.5.8l.9 1.1c1.5-.6-.1 1.4 1.1.5 0 0 .3 1 3.5 1.3s3.4 0 3.4 0h.5c.7 1.3 1.7 3.1 3 2.3s2.3-1.8 3.1-3.1c.5 1.3 2 1.9 3.3 1.4.2-.1.3-.1.4-.2l2.4-1.7c2.7-2.1 6.5-4.7 9.6-7.3l1.4-1.8c1.8-2.1 4.4-.2 4.4-.2l.9-1.5 1.3-.9s-.1 1 .6.7.7-.4 1.1-1.7-1.1 0-.7-.8c.8-.9 1.7-1.7 2.8-2.3.7-.5 1.3-1.1 1.9-1.8.9-.9 1.7-1.1 2.6-1.9.5-.6 1.1-1.1 1.7-1.7l1.2-.8c1.5-.9 3.3-1.5 3.9-1.9s3.1-2 3.6-1.5 2.2-.3 2.9-1.5l.6.9 2.4-1.7 2.3-1.2h.3l.6.9 2.2-.7.7-.8c1.2-.1 2.4-.1 3.6 0l.9.8c1.2-2.1 2.6-4 4.2-5.8 1-1 2.1-1.9 3.3-2.8l1-.7c.6-.5 1.3-1 1.8-1.5l1.3-1.3 1.5-.6s-.2.6.1.8h.3c.3 0 .5-.2.8-.3.3-.3.5-.6.7-1 .7-1.1-1.1-.3-.5-1 1-.8 2.1-1.3 3.3-1.7.8-.3 1.6-.7 2.3-1.3 1.1-.6 1.9-.7 2.9-1.3.7-.4 1.2-.8 2-1.2l1.4-.6c1.2-.4 2.4-.7 3.6-.8l.7-.1c1.1-.4 2.2-.7 3.3-.8l1.4-1.3c1.2-.9 2.4-1.7 3.7-2.4 2.4-1.4 3.1-1.9 3.1-1.9l1.4-1.1 1.6-.3s-.5.9.3.8.8-.1 1.7-1.1-1.1-.4-.3-1l.3-.2c1-.5 2.1-.8 3.2-1.1.9-.2 1.7-.6 2.5-1 1.2-.5 2-.5 3.1-.9.7-.3 1.4-.7 2.2-.9h.2l.3-.1c1.2-.5 2.3-1 3.3-1.7l1.5-1 1.7-.3s-.6.9.2.9.8 0 1.8-1c.9-1-1-.5-.3-1 1.2-.5 2.4-.8 3.6-.9.9-.2 1.7-.4 2.6-.8 1.2-.4 2.1-.4 3.2-.8.8-.3 1.3-.6 2.2-.8l1.5-.3c1.8-.1 3.7 0 4.5 0 .7 0 3.7-.6 3.9 0s2.1.6 3.3-.3l.2 1 3-.5 2.7-.1h.3l.2 1.1 2.3.2.9-.4c1.1.3 2.2.7 3.2 1.2 1.1-.4.4-.7 1.5-1.7 1-.9 1.7-2.1 2.2-3.3 1.5.2 2.9.2 4.4 0 3.1-.3 0 0 3.5-1.1s2.4-2.5 5.6-2.1c1.6.3 3.3.2 4.8-.4.6-.5 1.2-1 1.9-1.5.7-.3 1.3-.8 1.8-1.4 1.1.4-1 2.1 0 1.9 2.6 2.1 6.1 2.6 9.3 1.4 2.5-.4 2-2.3 4.4-.6 1.3.9-1.2.8 3.5 3.2 1.4.7.9 1.1 2.8-.7.6-1.3 1.2-2.6 2-3.8 1.1-.5 0-2.8 1.4-2.2l2.7-11.5 1.3-4 1.8-7.6.3-1.3c0-3.8.8-7.5 2.4-11 0 0 .6 5.6 1.9-2.5.8-4.8.9-9.6.3-14.4.4-5.9 1.4-11.8 2.9-17.5 1.4-4.9 2-9.9 1.8-15l2.1-22.6-.1-5.5 1.1.1.2-.4.7-3 .4-3.4 1.1.1c-.4-1.7 0-3.8.8-3.8s1.1-3.3 1.4-4.3c.2-.9 1-2.9 1.4-5l.3-1.7c.1-1 0-1.7 0-2.7 0-1.3.4-2.2.5-3.7 0-1 0-2.1.2-3.1.4-1.4.6-2.8.5-4.2-.2-1-.5 1.3-1.1-.1s-.5-1.4-.2-2.3.9.1.9.1l.4-1.8-.3-2.1c-.2-1.4-.2-2.8-.1-4.2 0-2.1-.1-4-.2-5.1l-.5-2.9c1.1-4.3 2.2-8.8 3.3-13.6l-1.1-.1 2.3-11.4.3-1.3c-.5-3.7-.6-7.4-.4-11.1 0 0 .2 2.4.8 1.7v-.1-2.6c-.2-1.3-.2-1.8.2-1.8h.4v-1.8c-.3-.8-.5-1.7-.6-2.5l.1-2.8v-5.7c.3-.5.5-1.1.7-1.7.4-1.3-.5-1.5-.5-1.5l-.7 2.4c.2-2.9.5-5.8.8-8.8l1.1-1.3s.5.9.7 0c.3-.9.2-1.9-.1-2.8h-.3l-.6-.4 1.1-6.5.9-1 .7-1.7.7-2.9c.3-.5.6-1 1.1-1.4l.5-2.6v-1.6l.3-.6.4-1.1c.3-.9 0-1.3-.3-1.4h-.1l-.8 2.4c.2-2.9-.9-4.6-.5-7.6l.8-.9zm-169.6-32.4 2.2-1.9 1.5-1c1.4-.8 2.8-1.5 4.2-2.1l.7-.4c1.2-.8 2.5-1.5 3.9-2 .5-.6.9-1.2 1.5-1.8.9-.8 2.4-2.1 4.2-3.5l3.6-2.8 1.7-1.5 1.9-.8s-.5 1.1.4.8c1-.3 1-.3 1.9-1.7.9-1.3-1.3-.2-.5-.9l.3-.3c1.2-.8 2.5-1.4 3.8-1.9 1-.5 2-1 2.9-1.7 1.4-.9 2.4-1.1 3.7-1.8l2.6-1.4.2-.1.7-.3c1.3-.7 2.6-1.6 3.9-2.4l1.8-1.3 2-.6s-.7 1 .3.8 1-.2 2.1-1.4-1.3-.3-.4-1c1.4-.8 2.9-1.3 4.4-1.7 1.1-.3 2.2-.7 3.2-1.3 1.5-.7 2.5-.8 3.9-1.4l2.8-1.1 1.8-.5c1.9-.4 3.7-.6 5.6-.8 1-.2 4.6-1.1 5-.4s2.6.3 4.2-.7l.2 1 3.7-.8 3.3-.4h.4l.2 1.1h3l1.2-.5c1.4.2 2.7.6 4 1 1.4-.5.6-.8 1.9-1.7.8-.5 1.4-1.2 1.9-2v.8c0 .5-.3.8-.3 1.2v1l-.2.5c-.3.5-.6.9-1 1.3l-.2.2c-.1.2-.3 1-.8 1.2l.5.8c.2.6.4 1.2.4 1.8 0 .5.1 1 .3 1.5l.4.8-.3.6s-.6-.5-.9-.2c-.2.3-.2.3.3.9s.8-.2 1 .2v.1c0 .5-.1.9-.3 1.3s-.1.5 0 1-.3.8-.3 1.2v1 .4c0 .5.1 1 .3 1.5l.4.8-.3.6s-.6-.5-.9-.2-.2.3.3.9c.6.6.8-.2 1 .2s-.1 1-.3 1.4-.1.5 0 1-.3.8-.3 1.2v1l-.2.6c-.3.6-1 1.2-1.2 1.5-.1.3-.4 1.4-1.1 1.3s-1 .5-.6 1.1h-.5l-.6-.1v.1c-3.1.1-6.2 0-9.3-.3-4.6-.5-9.2-.1-13.6 1.2-6.7 1-13.4 2.1-20 3.3l-4.6 1.7-.2-1h-.4l-2.7.1-3 .6-.2-1c-1.3.9-3.2 1-3.4.3s-3.2-.2-4 0-2.8 0-4.5 0l-1.5.2c-.8.2-1.5.5-2.3.7-1.1.4-2 .3-3.2.7-.8.4-1.7.6-2.6.7-1.3.1-2.5.4-3.7.8-.8.5 1.2.1.2 1s-1 .9-1.8.9-.2-.9-.2-.9l-1 .6-1.7.9c-1.1.6-2.2 1.1-3.3 1.5-1.4.5-2.8 1.2-4.1 1.8l-2.2 1.5c-2.3.2-5 .7-7.5 1.1l1.2-1.2c1.1-1.1 2.1-1.5 3.2-2.5zm-264.3-46.6c.9-.2 1.8-.4 2.7-.4 1.9-.3 3.7.9 4.3 2.7l2.1-.6 2 .2s-1 .7 0 .9 1 .2 2.4-.4-1-.8 0-1.1c1.5-.2 3-.1 4.5.1 1.1.1 2.2.1 3.3 0 1.6 0 2.5.3 3.9.3h2.9l1.8.2c1.8.4 3.5.9 5.2 1.5 1 .2 4.4.7 4.5 1.5 0 .7 2.2 1.3 3.9 1l-.2 1 3.5.6 3 .9.4.2-.2 1 2.5 1.2h1.2c1.1.8 2.2 1.6 3.1 2.6l.1 1.2c2.7-.5 5.4-.7 8.2-.5 1.7.1 3.4.4 5 .9l1.3.3c.9.2 1.8.4 2.6.5l2 .2 1.5.9s-.7.2-.6.5c0 .1.1.2.2.3.2.2.5.4.8.4h1.3c1.4 0-.5-1.1.5-1 1.3.4 2.4 1 3.5 1.8.8.5 1.6.9 2.5 1.2 1.3.6 2 1.5 3.3 2.1.9.5 1.7.8 2.5 1.3l1.5 1c1.2 1 2.3 2 3.3 3.2l.6.5c1.1.8 2.2 1.8 3.1 2.9l2.1.8c1 .5 2.7 1.4 4.6 2.6 2.8 1.8 3.6 2.3 3.6 2.3l1.9.9 1.3 1.4s-1.2-.1-.6.6c.6.8.6.7 2 1.2s-.2-1.3.7-.8l.3.2c1 .9 1.9 1.8 2.8 2.8.7.8 1.5 1.5 2.3 2.1 1.1 1 1.5 1.9 2.5 2.8.7.7 1.3 1.1 2 1.9l.2.2.3.3c2.3 2.3 3.1 2.9 3.1 2.9l1.7 1.3 1 1.7s-1.2-.3-.7.5c.4.9.4.9 1.7 1.6s0-1.3.9-.6c1 1.1 1.8 2.3 2.5 3.6.6.9 1.2 1.7 1.9 2.6.2.3.4.6.6.9-3.8-2.9-8.1-5.1-12.6-6.5-6.5-2.9-13.1-5.7-19.9-8.3l-5.1-1.2.4-1-.3-.2-2.7-1.4-3.2-1.2.4-1c-1.7 0-3.6-.9-3.4-1.7.1-.8-3-1.8-3.9-2.2-.8-.4-2.7-1.6-4.5-2.3l-1.7-.6c-.9-.2-1.8-.4-2.7-.5-1.3-.2-2.2-.7-3.6-1-1-.1-2-.3-3-.6-1.4-.5-2.8-.9-4.2-1-1 0 1.2.7-.2 1-1.5.3-1.5.4-2.3 0-.9-.4.2-.9.2-.9l-1.7.2-2.1.1c-1.4 0-2.8 0-4.2-.1-1.7-.1-3.4-.1-5.2 0l-2.9.5c-4.6-1.2-9.2-2.1-13.9-2.8v1.1l-11.4-1.1-1.2-.2c-3.3.9-6.6 1.5-10 1.8 0 0 2.1-.6 1.5-1h-.1l-2.4.4c-1.2.3-1.7.4-1.7 0v-.3l-1.7.3c-.7.4-1.5.7-2.2.9l-2.8.4-1.4.2c.1-.3.1-.5.1-.8-.2-1.4-1-2.6-2.1-3.3-.6-1.5-.7-3.1-.2-4.6.5-1.3.2-2.8-.7-3.8l-1.7-5.7-1.1-1.2 1-.2.1-.1.2-.8-.2-.9 1.1-.2c-.7-.3-.5-.9.2-1s.6-1 .6-1.3c.2-.5.4-.9.6-1.4v-.4c-.1-.2-.2-.4-.4-.6-.2-.3 0-.6-.2-.9s-.3-.4-.3-.8.1-.9-.2-1.1-.3.4-1.1.2-.7-.2-.6-.5.9-.1.9-.1l.1-.5-.6-.4c-.3-.3-.6-.6-.8-.9-.3-.4-.6-.8-1-1.2l-1-.6c.2-.5.2-1 .4-1.5zm157.3 370.1-1.4-1.1c-1.7-1.4-3.1-3.1-3.8-3.7s-3.7-2.4-3.4-3.1-1.5-2.1-3.2-2.4l.6-.9-3.1-1.9-2.6-2-.3-.3.5-.9-2.1-1.9-1.2-.3c-.9-1.1-1.8-2.2-2.5-3.3l.1-1.2c-2.9-.3-5.7-.7-8.5-1.4l-5-1.7-1.4-.5c-.9-.3-1.8-.6-2.8-.8l-2.1-.4-1.7-1s.7-.2.6-.5c0-.1-.1-.2-.2-.3-.3-.2-.6-.4-.9-.5-.5-.1-1-.1-1.4 0-1.5 0 .6 1.1-.4 1-1.4-.5-2.7-1.1-4-1.8-1-.5-2-.8-3-1.1-1.5-.5-2.2-1.1-3.6-1.5-1-.3-1.7-.4-2.7-.8l-1.7-.7-3.9-2.3-.7-.4c-1.3-.5-2.6-1.1-3.8-1.9l-2.3-.1c-1.1-.2-3.1-.5-5.2-1-1.4-.4-2.8-.7-4.3-.8l-2.1-.1-1.8-.7s1.1-.4.3-.8c-.9-.4-.9-.4-2.4-.2-1.5.3.8 1-.3 1h-.4c-1.3-.3-2.6-.7-3.8-1.2-1-.4-2-.7-3.1-.9-1.5-.3-2.3-.9-3.7-1-1-.1-1.7-.2-2.8-.4h-.2-.4c-1.4-.2-2.9-.3-4.3-.3h-2.1l-1.8-.6s1.1-.5.2-.9-.9-.4-2.4 0 .8 1-.2 1.1c-1.5-.1-2.9-.4-4.3-.8-1-.2-2.1-.4-3.2-.4-1.5-.1-2.4-.5-3.8-.6-1 0-1.7 0-2.8-.2l-1.8-.3-5.1-1.4c-1-.2-4.4-.5-4.5-1.2s-2.3-1.2-4-.7v-1.1l-3.6-.3c-1.1-.2-2.2-.3-3.3-.4l-.4-.1v-1.1l-2.8-.6-1.3.3c-1.3-.5-2.5-1-3.8-1.7-1.5.2-.7.7-2.1 1.3-1.3.7-2.4 1.8-3.1 3-1.8-.2-3.6-.2-5.4 0h-1.2l-.1-4.6v-1.3c-.9-3.6-1.1-7.4-.4-11.1 0 0 1.9 5.2 1.2-2.9-.5-4.7-1.6-9.4-3.3-13.8-1.1-5.7-1.6-11.6-1.7-17.4.1-5-.5-9.9-1.9-14.7l-3.3-22.2c-.5-1.8-1-3.5-1.5-5.2l1-.1v-.4-3l-.4-3.3 1.1-.1c-.8-1.5-.9-3.6-.2-3.8s.3-3.5.2-4.4c0-.9.2-3.1.2-5 0-.5-.1-1.1-.2-1.7-.2-.9-.4-1.7-.6-2.6-.3-1.3-.1-2.2-.5-3.6-.3-1-.5-2-.5-3 0-1.4-.2-2.8-.5-4.2-.4-.9-.2 1.3-1.1.1s-.8-1.3-.8-2.3.9-.1.9-.1 0-.6 0-1.8l-.8-1.9c-.5-1.3-.9-2.6-1.2-3.9-.5-2-1.1-3.8-1.4-4.8s-.8-1.7-1.2-2.5c0-4.4 0-9-.3-13.8l-1.1.1-.6-11.5v-1.3c-1.4-3.4-2.4-6.9-3.1-10.5 0 0 .8 2.2 1.2 1.5v-.1l-.7-2.5c-.5-1.2-.6-1.7-.2-1.7h-.6l-.5-1.7c-.5-.7-.9-1.5-1.2-2.3l-.6-2.7-1.4-5.5c.1-.6.2-1.2.2-1.8 0-1.3-.8-1.3-.8-1.3l-.1 2.4c-.5-2.8-1-5.6-1.4-8.5l.8-1.5s.7.7.7-.1c0-.9-.3-1.9-.8-2.6h-.3l-.7-.3c-.2-2.2-.4-4.3-.6-6.4l.6-1.1.3-1.8v-2.9c.1-.6.4-1.1.7-1.5 0-1.1-.1-1.9-.1-2.6l-.4-1.5s0-.2.1-.7 0-.6.1-1.1c0-1-.4-1.2-.7-1.3h-.1l-.2 2.3c-.5-2.8-2-4.2-2.4-7.1l.5-1 .2-.5s.7.7.7-.1c0-.9-.3-1.9-.8-2.6h-.3l-.3-.1-.4-.1c-.3-1.5-.6-2.9-1.1-4.3l6.7-.4 2.7-.7c1.9-.4 3.8.6 4.5 2.3l2-.7h1.9s-.9.8 0 .9 1 .1 2.3-.7-1.1-.7 0-1.1c1.5-.3 3-.4 4.5-.3 1.1 0 2.2-.1 3.2-.3 1.5-.2 2.5 0 4-.2 1-.1 1.7-.3 2.9-.4h1.8c2.1.1 4.5.6 5.4.6.9.1 4.6 0 4.7.7.2.7 2.4.9 4.1.2v1.1h3.7l3.3.3.4.1v1.1l2.9.5 1.2-.3c1.4.5 2.7 1 4 1.7l.5 1.1c2.6-1.1 5.4-2.1 8.2-2.8 1.6-.3 3.2-.6 4.8-.7l1.3-.1 2.7-.3 2-.3 1.8.4s-.6.4-.3.7c.1.1.2.2.3.2.3.1.6.2.9.1.4-.1.9-.2 1.3-.4 1.4-.5-.8-.9.1-1.1 1.4 0 2.8.2 4.1.6 1 .2 2 .3 3 .3 1.4.1 2.3.5 3.6.7 1 .1 1.7.1 2.7.3l1.7.4c1.5.5 3 1.3 3.9 1.7l.7.3c1.3.4 2.5.9 3.7 1.6h2.2c1.7.1 3.3.4 5 .7 1.4.4 2.8.6 4.2.7l2.1.2 1.7.8s-1.1.3-.3.8.8.5 2.3.3c1.5-.1-.7-1.1.4-1l.4.1c1.3.4 2.5.9 3.7 1.5 1 .5 2 .8 3 1.1 1.5.4 2.2 1.1 3.6 1.5 1 .3 1.7.5 2.7.9l.2.1.4.1c1.4.5 2.8.9 4.2 1.2l2.1.4 1.7 1s-1.2.2-.4.8.8.6 2.4.6-.6-1.2.5-1c1.4.5 2.8 1.2 4.1 2 .9.5 1.9 1 3 1.3 1.4.6 2.2 1.3 3.5 1.8 1 .4 1.7.6 2.6 1.1l1.5.9c1.7 1.2 3.4 2.8 4.1 3.3.7.6 3.7 2.3 3.4 3s1.4 2 3.1 2.4l-.6.9 2.9 1.9 2.3 2 .2.3-.6.9 1.7 2 1.1.4c.6 1.1 1.2 2.2 1.7 3.3 1.1.6.9-.2 2.3.1 1.4.1 2.8 0 4.2-.5 1 1.3 2.1 2.5 3.3 3.5 2.5 2.4 0 0 3.3 2.2 1 .7 2.1 1.3 3.3 1.6.2.8.5 1.7.9 2.5.7.7 1.3 1.4 1.8 2.2.4.8 1 1.5 1.7 2.1.5.6 1.2 1 2 .9-.1 2-.3 4-.4 5.9.1 1 .2 2.1.3 3.3.4 2.1-.8 4.3-2.8 5.1l.5 2.5c-.1 1.5-.2 2.4-.2 2.4s-.7-1.2-.9 0-.2 1.2.5 2.9.8-1.2 1.1 0c.2 1.8.2 3.6 0 5.4-.1 1.3 0 2.6.1 3.9.1 1.8-.1 3 0 4.7.1 1.2.2 2.1.2 3.4v2.2c-.2 2.5-.8 5.3-.9 6.4s-.1 5.4-.8 5.5-1 2.9-.4 4.9h-1.1v4.4l-.3 3.9-.1.5h-1.1l-.6 3.3.3 1.5c-.5 1.6-1.1 3.1-1.8 4.6l-1.1.5c1.2 3.2 2.1 6.5 2.8 9.8.2 1.3.6 3.7.8 6.3 0 .7.1 1.2.1 1.8.3 2.5.5 3.5.5 3.5l.5 2.5c-.1 1.5-.2 2.4-.2 2.4s-.4-.7-.7-.4c-.1.1-.2.2-.2.4-.1.4-.1.8 0 1.2.1.6.3 1.1.6 1.7.7 1.7.8-1.2 1.1 0 .2 1.8.2 3.6 0 5.4-.1 1.3 0 2.6.1 3.9.1 1.8-.1 3 0 4.7.1 1.2.2 2.1.2 3.4v2.2c-.2 2-.5 4.1-.7 5.4 0 .4-.1.7-.1 1 0 1.7-.2 3.4-.5 5.1.2.9.4 1.7.6 2.6.2 1.3.6 3.7.8 6.3.1 1.8.3 3.5.6 5.2l.5 2.5c-.1 1.5-.2 2.3-.2 2.3s-.7-1.2-.9 0-.2 1.2.5 2.9.8-1.2 1.1 0v.5c.1 1.6.1 3.3 0 4.9-.1 1.3 0 2.6.1 3.9.1 1.8-.1 3 0 4.7.1 1.2.2 2.1.2 3.4v.3.5c.1 1.7.3 3.5.6 5.2l.5 2.5c-.1 1.5-.2 2.3-.2 2.3s-.7-1.2-.9 0-.2 1.2.5 2.9.8-1.2 1.1 0c.2 1.8.2 3.6 0 5.4-.1 1.3 0 2.6.1 3.9.1 1.9-.1 3 0 4.7.1 1.2.2 2.1.2 3.4v2.2c-.2 2.5-.8 5.3-.8 6.4s-.1 5.4-.8 5.5-1 2.9-.4 4.9h-1.1v4.4l-.3 3.9-.1.5h-1.1l-.6 3.3.3 1.5c-.2.5-.4.9-.5 1.4-.6-.5-1.2-.9-1.8-1.3-1.5-1.1-2.1-1.4-3-2zm243.7-296.7v3.2c.1 2.1-1.3 4-3.3 4.6l.2 2.5-.5 2.2s-.6-1.2-.9-.1-.3 1.1.2 2.8.9-1.1 1.1.1c0 1.7-.2 3.5-.6 5.1-.2 1.2-.3 2.5-.3 3.7-.1 1.8-.5 2.9-.6 4.5l-.1 3.3-.3 2.1c-.5 2.4-1.4 5-1.6 6s-.7 5.1-1.5 5.2c-.7.1-1.3 2.6-.9 4.6l-1.1-.1-.5 4.2-.8 3.7-.2.5-1.1-.1-1 3.1.1 1.4c-.7 1.5-1.5 2.9-2.3 4.2l-1.1.4c.8 3.2 1.4 6.4 1.7 9.7 0 1.3.1 3.6 0 6.1v1.7 3.3l.2 2.5-.5 2.2s-.4-.7-.7-.4c-.1.1-.2.2-.2.3-.1.4-.2.8-.2 1.2.1.6.2 1.1.4 1.7.5 1.7.9-1.1 1.1.1 0 1.7-.2 3.4-.6 5.1-.2 1.2-.3 2.5-.3 3.7 0 1.8-.5 2.9-.6 4.5l-.1 3.3-.3 2.1c-.4 1.8-1 3.8-1.3 5l-.2.9c-.2 1.6-.6 3.2-1.1 4.8l.3 2.6c0 1.3.1 3.6 0 6.1-.1 1.7-.1 3.3 0 5l.2 2.5-.5 2.2s-.6-1.2-.9-.1-.3 1.1.2 2.8.9-1.1 1.1.1v.5c-.1 1.6-.3 3.1-.6 4.7-.2 1.2-.3 2.5-.3 3.7-.1 1.8-.5 2.9-.5 4.5l-.1 3.3v.3.5c-.1 1.7-.1 3.3 0 5l.2 2.5-.5 2.2s-.6-1.2-.9-.1-.3 1.1.1 2.8c.5 1.7.9-1.1 1.1.1 0 1.7-.2 3.4-.6 5.1-.2 1.2-.3 2.5-.3 3.7 0 1.8-.5 2.9-.5 4.5l-.1 3.3-.3 2.1c-.5 2.4-1.4 5-1.6 5.9s-.7 5.1-1.5 5.2c-.7.1-1.3 2.6-.9 4.6l-1-.1-.5 4.2-.8 3.7-.2.4-1.1-.1-1 3.1.1 1.4c-.7 1.4-1.4 2.7-2.2 4 0 1.7.6.9 1 2.6.5 1.5 1.4 2.9 2.6 4-.6 2-1 4-1.2 6-.2 1.5-.2 1.9-.2 2.1-2.5-.3-5.1-.5-7.9-.7l-3.3-.5-6.2-.2h-1c-3 .7-6 .7-9 0 0 0 4.2-1.9-2.4-1.2-3.9.4-7.6 1.5-11.1 3.3-4.6 1.2-9.3 1.9-14 2.1-4 .2-8 1.2-11.7 2.9-5.8 1.8-11.4 3.8-17.1 5.8l-3.8 2.2-.3-1h-.3l-2.4.5-2.6.9-.4-1c-1 1-2.7 1.4-3 .7s-2.9.2-3.6.5c-.7.2-2.5.3-4.1.8l-1.3.5c-.7.3-1.3.7-1.9 1.1-.9.5-1.7.6-2.8 1.1-.7.5-1.4.8-2.2 1.1-1.1.3-2.2.7-3.1 1.4-.6.6 1.1-.1.4 1s-.7 1.1-1.4 1.2c-.7.2-.4-.8-.4-.8l-1.4.5-1.2 1.2c-.9.7-1.8 1.4-2.7 2-1.2.8-2.3 1.6-3.3 2.4-.6.6-1.2 1.2-1.7 1.8-3.3 1.1-6.9 2.4-10.6 3.8l.5 1c-2.9 1.1-5.7 2.5-8.6 3.8l-1 .4c-2 2.3-4.2 4.3-6.7 6 0 0 1.3-1.5.6-1.6l-1.5 1.5c-.7.9-1 1.1-1.2.8l-.2-.3-1 1c-.3.7-.7 1.3-1.1 1.8l-2.1 1.5-3.4 3.1c-.5.1-1 .3-1.4.4-.5.1-.8.6-.6 1 0 .1 0 .1.1.2l1.9-.8-5 4c0-.3 0-.5 0-.8.2-5-.3-10-1.4-14.8-.3-6.1 0-12.2.8-18.3.8-5.2.8-10.4 0-15.5l-.6-23.4c-.2-2-.5-3.8-.8-5.6h1.1l.1-.4.3-3.2v-3.6h1.1c-.6-1.7-.4-3.9.3-4s.7-3.6.8-4.6.6-3.1.8-5.2c0-.6 0-1.2 0-1.8 0-1.1-.1-1.8-.2-2.8-.1-1.4.1-2.3 0-3.9-.2-1.1-.2-2.1-.1-3.2.2-1.5.2-2.9 0-4.4-.3-1-.4 1.4-1.1 0s-.7-1.4-.5-2.3c.2-1 .9 0 .9 0s.1-.7.2-1.9l-.5-2.1c-.3-1.4-.5-2.8-.6-4.3-.2-2.2-.6-4.1-.8-5.2s-.6-1.9-.9-2.9c.6-4.6 1.1-9.4 1.7-14.4h-1.1l1-12 .2-1.3c-.9-3.7-1.5-7.5-1.7-11.4 0 0 .5 2.4 1 1.7v-.1l-.4-2.7c-.3-1.3-.4-1.8 0-1.8h.4l-.3-1.9c-.4-.8-.7-1.6-.9-2.5l-.2-2.9-.7-5.9c.2-.6.4-1.2.4-1.8.2-1.3-.6-1.5-.6-1.5l-.5 2.5c-.1-3-.2-6-.2-9.1l1-1.5s.6.8.7 0c.1-1 0-2-.5-2.9h-.3l-.7-.4c0-2.3.1-4.6.3-6.8l.8-1.1.5-1.8.3-3c.2-.6.5-1.1.9-1.5.1-1.1.2-2 .2-2.8l-.2-1.7c.1-.2.1-.4.2-.7 0-.3.1-.6.2-1.2.2-1-.2-1.3-.5-1.4h-.1l-.5 2.5c-.1-3-1.4-4.7-1.4-7.8l.6-1 .3-.5s.6.8.7 0c.1-1 0-2-.5-2.9h-.3l-.3-.1-.4-.2c0-2-.7-3.7-.6-5.6 0-.3 0-.7 0-1v-.1l1.2-3c3.2-2.4 7.1-5.8 10.6-8.8l1.7-2c1.2-1.4 3.2-1.7 4.8-.6l1-1.7 1.5-1s-.2 1.1.6.7.8-.4 1.3-1.8-1.2 0-.7-.8c.9-1 1.9-1.9 3.1-2.6.8-.5 1.5-1.2 2.1-1.9 1-1 1.8-1.2 2.8-2.1.6-.6 1.2-1.2 1.9-1.7l1.3-.8c1.4-.7 2.8-1.3 4.3-1.8.7-.4 3.3-1.9 3.8-1.3.5.5 2.2-.1 3.1-1.3l.5.9 2.7-1.4 2.6-.9h.4l.4 1 2.4-.4.8-.7c1.2.1 2.5.2 3.7.4l.8.9c1.7-1.9 3.6-3.6 5.7-5 1.4-.8 2.8-1.5 4.3-2.2l1.2-.5c.8-.3 1.6-.7 2.4-1.2l1.7-1 1.8-.3s-.4.6 0 .8c.1.1.2.1.3.1.3 0 .7-.1 1-.2.4-.3.7-.6 1.1-.9 1.1-1-1.1-.5-.3-1 1.3-.5 2.7-.9 4.1-1 1-.2 2-.5 3-.9 1.4-.5 2.4-.4 3.7-.9.9-.3 1.7-.6 2.6-.9l1.7-.3c1.7-.2 3.3-.2 4.4-.2h.8c1.3-.3 2.7-.4 4.1-.4l1.9-1.1c1.6-.7 3.2-1.3 4.8-1.8 1.3-.4 2.7-.9 3.9-1.4l1.9-.9 1.9-.1s-.8.9.2.9c.9 0 .9 0 2.1-.9s-1.1-.6-.2-1.1l.4-.1c1.3-.3 2.5-.5 3.8-.6 1-.1 2-.3 3-.7 1.4-.4 2.4-.2 3.7-.5.9-.2 1.7-.5 2.6-.6h.2l.4-.1c1.4-.3 2.7-.7 4-1.2l1.9-.8h1.9s-.8.8.1.9.9 0 2.2-.8c1.2-.8-1.1-.7-.1-1.1 1.4-.4 2.8-.5 4.2-.4 1 0 2-.2 3-.4 1.4-.3 2.4-.1 3.7-.3 1-.2 1.7-.3 2.7-.4h1.7c2 0 4.2.5 5 .6s4.2 0 4.3.7 2.2.9 3.8.3v1.1h3.3l3 .3.4.1v.8l2.5.7 1.1-.3c1.1.5 2.3 1.1 3.3 1.8 1.3-.2.6-.7 2-1.2 1.2-.7 2.3-1.7 3.1-2.9 1.6.5 3.2.7 4.8.8 3.5.4 0 0 4.1-.3 3.1-.2 3.3-1.2 4.7-1.1-.7 1.4-1 3.1-1.3 4.6zm19.9-22.5c.1-.2.3-.5.5-.8-.1.8-.3.9-.5.8z" fill="#000000" style="fill: rgb(255, 255, 255);"></path></svg>